<svg xmlns="http://www.w3.org/2000/svg" width="600" height="400" viewBox="0 0 600 400">
  <defs>
    <linearGradient id="bg" x1="0%" y1="0%" x2="100%" y2="100%">
      <stop offset="0%" stop-color="#1E1208"/>
      <stop offset="100%" stop-color="#3A2010"/>
    </linearGradient>
    <linearGradient id="card" x1="0%" y1="0%" x2="0%" y2="100%">
      <stop offset="0%" stop-color="#2E1A0C"/>
      <stop offset="100%" stop-color="#221408"/>
    </linearGradient>
  </defs>

  <!-- Background -->
  <rect width="600" height="400" fill="url(#bg)"/>

  <!-- Subtle diagonal weave lines -->
  <line x1="0" y1="60" x2="60" y2="0" stroke="rgba(180,130,70,0.07)" stroke-width="1"/>
  <line x1="0" y1="130" x2="130" y2="0" stroke="rgba(180,130,70,0.07)" stroke-width="1"/>
  <line x1="0" y1="210" x2="210" y2="0" stroke="rgba(180,130,70,0.07)" stroke-width="1"/>
  <line x1="0" y1="310" x2="310" y2="0" stroke="rgba(180,130,70,0.07)" stroke-width="1"/>
  <line x1="0" y1="400" x2="400" y2="0" stroke="rgba(180,130,70,0.07)" stroke-width="1"/>
  <line x1="90" y1="400" x2="490" y2="0" stroke="rgba(180,130,70,0.07)" stroke-width="1"/>
  <line x1="210" y1="400" x2="600" y2="10" stroke="rgba(180,130,70,0.07)" stroke-width="1"/>
  <line x1="370" y1="400" x2="600" y2="170" stroke="rgba(180,130,70,0.07)" stroke-width="1"/>

  <!-- ── Card 1: 故事卡片系統 ── -->
  <rect x="14" y="14" width="178" height="372" rx="14" fill="url(#card)" stroke="#5A3820" stroke-width="1.2"/>
  <!-- Header -->
  <rect x="14" y="14" width="178" height="42" rx="14" fill="#3A2010"/>
  <rect x="14" y="36" width="178" height="20" fill="#3A2010"/>
  <text x="103" y="39" font-size="10.5" font-family="system-ui,sans-serif" fill="#D4A070" text-anchor="middle" font-weight="600">故事卡片系統</text>
  <line x1="14" y1="56" x2="192" y2="56" stroke="rgba(180,130,70,0.15)" stroke-width="1"/>

  <!-- Artisan card mockup -->
  <rect x="26" y="66" width="154" height="100" rx="9" fill="#1A0E06"/>
  <rect x="26" y="66" width="154" height="28" rx="9" fill="#2A1808"/>
  <rect x="26" y="82" width="154" height="12" fill="#2A1808"/>
  <text x="103" y="83" font-size="8.5" font-family="system-ui,sans-serif" fill="#C09060" text-anchor="middle">菁寮 · 手工技藝</text>
  <text x="52" y="128" font-size="24" font-family="system-ui,sans-serif" text-anchor="middle">🧶</text>
  <text x="126" y="118" font-size="8.5" font-family="system-ui,sans-serif" fill="white" font-weight="600">王阿姨的茄芷袋</text>
  <text x="126" y="132" font-size="7" font-family="system-ui,sans-serif" fill="rgba(255,255,255,0.45)">編織 40 年 · 傳承老手法</text>
  <text x="126" y="144" font-size="7" font-family="system-ui,sans-serif" fill="rgba(255,255,255,0.45)">材料：藺草 · 手縫底布</text>

  <!-- Tags -->
  <rect x="26" y="176" width="50" height="15" rx="7" fill="rgba(160,112,60,0.28)"/>
  <text x="51" y="187" font-size="7" font-family="system-ui,sans-serif" fill="#C09060" text-anchor="middle">手工製作</text>
  <rect x="82" y="176" width="50" height="15" rx="7" fill="rgba(160,112,60,0.28)"/>
  <text x="107" y="187" font-size="7" font-family="system-ui,sans-serif" fill="#C09060" text-anchor="middle">限量珍藏</text>

  <!-- Description lines -->
  <rect x="26" y="202" width="154" height="7" rx="3" fill="rgba(255,255,255,0.07)"/>
  <rect x="26" y="215" width="120" height="7" rx="3" fill="rgba(255,255,255,0.05)"/>
  <rect x="26" y="228" width="138" height="7" rx="3" fill="rgba(255,255,255,0.05)"/>
  <rect x="26" y="241" width="90" height="7" rx="3" fill="rgba(255,255,255,0.04)"/>

  <!-- 2nd artisan card -->
  <rect x="26" y="262" width="154" height="60" rx="9" fill="#1A0E06" stroke="rgba(160,112,60,0.15)" stroke-width="1"/>
  <text x="48" y="296" font-size="20" font-family="system-ui,sans-serif" text-anchor="middle">🪡</text>
  <text x="110" y="285" font-size="8.5" font-family="system-ui,sans-serif" fill="white" font-weight="600">林師傅·藺草編</text>
  <text x="110" y="299" font-size="7" font-family="system-ui,sans-serif" fill="rgba(255,255,255,0.4)">傳承三代 · 台南製造</text>
  <text x="110" y="311" font-size="7" font-family="system-ui,sans-serif" fill="#C09060">★★★★★</text>

  <!-- CTA -->
  <rect x="26" y="336" width="154" height="38" rx="9" fill="#3A2010"/>
  <text x="103" y="359" font-size="8.5" font-family="system-ui,sans-serif" fill="#C09060" text-anchor="middle">了解工藝故事 →</text>

  <!-- ── Card 2: 城市限定色系 ── -->
  <rect x="210" y="14" width="178" height="372" rx="14" fill="url(#card)" stroke="#5A3820" stroke-width="1.2"/>
  <rect x="210" y="14" width="178" height="42" rx="14" fill="#3A2010"/>
  <rect x="210" y="36" width="178" height="20" fill="#3A2010"/>
  <text x="299" y="39" font-size="10.5" font-family="system-ui,sans-serif" fill="#D4A070" text-anchor="middle" font-weight="600">城市限定色系</text>
  <line x1="210" y1="56" x2="388" y2="56" stroke="rgba(180,130,70,0.15)" stroke-width="1"/>

  <text x="224" y="78" font-size="8.5" font-family="system-ui,sans-serif" fill="rgba(255,255,255,0.4)">四季 · 土地 · 地方色彩</text>

  <!-- Swatch grid -->
  <rect x="224" y="86" width="36" height="36" rx="9" fill="#C4A46A"/>
  <rect x="268" y="86" width="36" height="36" rx="9" fill="#8B6240"/>
  <rect x="312" y="86" width="36" height="36" rx="9" fill="#4A7850"/>
  <rect x="356" y="86" width="36" height="36" rx="9" fill="#9C7040"/>

  <rect x="224" y="130" width="36" height="36" rx="9" fill="#D4B870"/>
  <rect x="268" y="130" width="36" height="36" rx="9" fill="#6A4830"/>
  <rect x="312" y="130" width="36" height="36" rx="9" fill="#B07840"/>
  <rect x="356" y="130" width="36" height="36" rx="9" fill="#5A7060"/>

  <!-- Swatch labels -->
  <text x="242" y="134" font-size="6.5" font-family="system-ui,sans-serif" fill="rgba(255,255,255,0.6)" text-anchor="middle">稻穗</text>
  <text x="286" y="134" font-size="6.5" font-family="system-ui,sans-serif" fill="rgba(255,255,255,0.6)" text-anchor="middle">土壤</text>
  <text x="330" y="134" font-size="6.5" font-family="system-ui,sans-serif" fill="rgba(255,255,255,0.6)" text-anchor="middle">夏草</text>
  <text x="374" y="134" font-size="6.5" font-family="system-ui,sans-serif" fill="rgba(255,255,255,0.6)" text-anchor="middle">老木</text>

  <!-- Applied product preview -->
  <rect x="224" y="178" width="154" height="54" rx="10" fill="#1A0E06" stroke="rgba(160,112,60,0.2)" stroke-width="1"/>
  <rect x="234" y="188" width="20" height="34" rx="5" fill="#C4A46A"/>
  <text x="270" y="204" font-size="8.5" font-family="system-ui,sans-serif" fill="white" font-weight="600">稻穗金 限定款</text>
  <text x="270" y="218" font-size="7" font-family="system-ui,sans-serif" fill="rgba(255,255,255,0.45)">茄芷袋 · 藺草編織</text>
  <rect x="348" y="192" width="20" height="20" rx="5" fill="#C4A46A" opacity="0.7"/>

  <rect x="224" y="240" width="154" height="54" rx="10" fill="#1A0E06" stroke="rgba(160,112,60,0.2)" stroke-width="1"/>
  <rect x="234" y="250" width="20" height="34" rx="5" fill="#4A7850"/>
  <text x="270" y="266" font-size="8.5" font-family="system-ui,sans-serif" fill="white" font-weight="600">夏草綠 限定款</text>
  <text x="270" y="280" font-size="7" font-family="system-ui,sans-serif" fill="rgba(255,255,255,0.45)">茄芷袋 · 藺草編織</text>
  <rect x="348" y="254" width="20" height="20" rx="5" fill="#4A7850" opacity="0.7"/>

  <!-- Description lines -->
  <rect x="224" y="308" width="154" height="7" rx="3" fill="rgba(255,255,255,0.07)"/>
  <rect x="224" y="321" width="110" height="7" rx="3" fill="rgba(255,255,255,0.05)"/>

  <!-- CTA -->
  <rect x="224" y="336" width="154" height="38" rx="9" fill="#3A2010"/>
  <text x="301" y="359" font-size="8.5" font-family="system-ui,sans-serif" fill="#C09060" text-anchor="middle">查看色系提案 →</text>

  <!-- ── Card 3: 工法識別標籤 ── -->
  <rect x="408" y="14" width="178" height="372" rx="14" fill="url(#card)" stroke="#5A3820" stroke-width="1.2"/>
  <rect x="408" y="14" width="178" height="42" rx="14" fill="#3A2010"/>
  <rect x="408" y="36" width="178" height="20" fill="#3A2010"/>
  <text x="497" y="39" font-size="10.5" font-family="system-ui,sans-serif" fill="#D4A070" text-anchor="middle" font-weight="600">工法識別標籤</text>
  <line x1="408" y1="56" x2="586" y2="56" stroke="rgba(180,130,70,0.15)" stroke-width="1"/>

  <text x="422" y="78" font-size="8.5" font-family="system-ui,sans-serif" fill="rgba(255,255,255,0.4)">可視化工藝符號系統</text>

  <!-- Badge 1 -->
  <rect x="422" y="88" width="148" height="52" rx="10" fill="#1A0E06" stroke="rgba(160,112,60,0.2)" stroke-width="1"/>
  <rect x="432" y="99" width="28" height="28" rx="7" fill="#3A2010"/>
  <text x="446" y="119" font-size="16" font-family="system-ui,sans-serif" text-anchor="middle">🪡</text>
  <text x="476" y="110" font-size="8.5" font-family="system-ui,sans-serif" fill="white" font-weight="600">藺草手編</text>
  <text x="476" y="124" font-size="7" font-family="system-ui,sans-serif" fill="rgba(255,255,255,0.45)">全手工 · 台南製造</text>

  <!-- Badge 2 -->
  <rect x="422" y="150" width="148" height="52" rx="10" fill="#1A0E06" stroke="rgba(160,112,60,0.2)" stroke-width="1"/>
  <rect x="432" y="161" width="28" height="28" rx="7" fill="#3A2010"/>
  <text x="446" y="181" font-size="16" font-family="system-ui,sans-serif" text-anchor="middle">🪢</text>
  <text x="476" y="172" font-size="8.5" font-family="system-ui,sans-serif" fill="white" font-weight="600">傳統結法</text>
  <text x="476" y="186" font-size="7" font-family="system-ui,sans-serif" fill="rgba(255,255,255,0.45)">三代傳承 · 耐用設計</text>

  <!-- Badge 3 -->
  <rect x="422" y="212" width="148" height="52" rx="10" fill="#1A0E06" stroke="rgba(160,112,60,0.2)" stroke-width="1"/>
  <rect x="432" y="223" width="28" height="28" rx="7" fill="#3A2010"/>
  <text x="446" y="243" font-size="16" font-family="system-ui,sans-serif" text-anchor="middle">🎨</text>
  <text x="476" y="234" font-size="8.5" font-family="system-ui,sans-serif" fill="white" font-weight="600">天然染色</text>
  <text x="476" y="248" font-size="7" font-family="system-ui,sans-serif" fill="rgba(255,255,255,0.45)">植物萃取 · 限定色</text>

  <!-- Badge 4 -->
  <rect x="422" y="274" width="148" height="52" rx="10" fill="#1A0E06" stroke="rgba(160,112,60,0.2)" stroke-width="1"/>
  <rect x="432" y="285" width="28" height="28" rx="7" fill="#3A2010"/>
  <text x="446" y="305" font-size="16" font-family="system-ui,sans-serif" text-anchor="middle">✂️</text>
  <text x="476" y="296" font-size="8.5" font-family="system-ui,sans-serif" fill="white" font-weight="600">手工裁縫</text>
  <text x="476" y="310" font-size="7" font-family="system-ui,sans-serif" fill="rgba(255,255,255,0.45)">職人工序 · 零浪費</text>

  <!-- CTA -->
  <rect x="422" y="336" width="148" height="38" rx="9" fill="#3A2010"/>
  <text x="496" y="359" font-size="8.5" font-family="system-ui,sans-serif" fill="#C09060" text-anchor="middle">認識工藝價值 →</text>
</svg>
